. 
 
http://www.torrenting.com          :     Once & For all ;)


               www . Torrenting . Com 

(((((((((((((= Enjoy No RAR releases =))))))))))))))))))))


...................................NFO:....................................

.   :::'###::::'##::: ##::::'###::::'########:::'######::'##::::'##:'##:::'##:
   ::'## ##::: ###:: ##:::'## ##::: ##.... ##:'##... ##: ##:::: ##:. ##:'##::
   :'##:. ##:: ####: ##::'##:. ##:: ##:::: ##: ##:::..:: ##:::: ##::. ####:::
   '##:::. ##: ## ## ##:'##:::. ##: ########:: ##::::::: #########:::. ##::::
    #########: ##. ####: #########: ##.. ##::: ##::::::: ##.... ##:::: ##::::
    ##.... ##: ##:. ###: ##.... ##: ##::. ##:: ##::: ##: ##:::: ##:::: ##::::
    ##:::: ##: ##::. ##: ##:::: ##: ##:::. ##:. ######:: ##:::: ##:::: ##::::
   ..:::::..::..::::..::..:::::..::..:::::..:::......:::..:::::..:::::..:::::

 
 
                                                                             
  Info ...                                                                   
  Title    : Our Day Will Come (2010) BRRip Xvid AC3-Anarchy                 
  Genre    : Drama                                                           
  Language : French                                                          
  Subs     : English                                                         
  Size     : 781 MiB                                                         
  Source   : BluRay x264-METH                                                
  Ripper   : fasamoo                                                         
 


   links ....
 &gt; RT       : http://www.rottentomatoes.com/m/notre_jour_viendra/&lt;
 &gt; imdb     : http://www.imdb.com/title/tt1651328/&lt;
 &gt; youtube  :

 
                                                                             
  Plot ...                                                                   
  Two bitter misfits decide to take out their rage on their world in this    
  offbeat drama. Remy (Olivier Barthelemy) is an angry, maladjusted teenager 
  who seems convinced the world looks down on him because he has red hair.   
  Remy has no friends and a poor relationship with his family, and after a   
  disagreement with his mother (Mathilde Braure) escalates into violence, he 
  runs away from home. Remy is seeing a psychiatrist, Patrick (Vincent       
  Cassel), who is also red-headed and angry about it, and when Patrick       
  learns that Remy has impulsively left home, he decides to run off with     
  him, proposing they to go to Ireland, where redheads are common. As Remy   
  and Patrick hit the road, they set off on a crime spree, leaving a trail   
  of verbal and physical violence in their wake as they take out their rage  
  on nearly anyone who isn't like them. However, once they get to Ireland,   
  things change very little as Patrick and Remy find they're not as welcome  
  as they imagined. Notre Jour Viendra (aka Our Day Will Come) was the first 
  feature film from director Romain Gavras, son of noted filmmaker Costa-    
  Gavras.                                                                    
                                                                             
 
 
 
                                                                             
  Video/Audio ...                                                            
  Video                                                                                                     
  ID                               : 0                                                                      
  Format                           : MPEG-4 Visual                                                          
  Format profile                   : Advanced Simple@L5                                                     
  Format settings, BVOP            : 2                                                                      
  Format settings, QPel            : No                                                                     
  Format settings, GMC             : No warppoints                                                          
  Format settings, Matrix          : Default (H.263)                                                        
  Muxing mode                      : Packed bitstream                                                       
  Codec ID                         : XVID                                                                   
  Codec ID/Hint                    : XviD                                                                   
  Duration                         : 1h 23mn                                                                
  Bit rate                         : 852 Kbps                                                               
  Width                            : 720 pixels                                                             
  Height                           : 304 pixels                                                             
  Display aspect ratio             : 2.35:1                                                                 
  Frame rate                       : 25.000 fps                                                             
  Color space                      : YUV                                                                    
  Chroma subsampling               : 4:2:0                                                                  
  Bit depth                        : 8 bits                                                                 
  Scan type                        : Progressive                                                            
  Compression mode                 : Lossy                                                                  
  Bits/(Pixel*Frame)               : 0.156                                                                  
  Stream size                      : 508 MiB (65%)                                                          
  Writing library                  : XviD 1.1.0 (UTC 2005-11-22)                                            
                                                                                                            
  Audio                                                                                                     
  ID                               : 1                                                                      
  Format                           : AC-3                                                                   
  Format/Info                      : Audio Coding 3                                                         
  Mode extension                   : CM (complete main)                                                     
  Codec ID                         : 2000                                                                   
  Duration                         : 1h 23mn                                                                
  Bit rate mode                    : Constant                                                               
  Bit rate                         : 448 Kbps                                                               
  Channel(s)                       : 6 channels                                                             
  Channel positions                : Front: L C R, Side: L R, LFE                                           
  Sampling rate                    : 48.0 KHz                                                               
  Bit depth                        : 16 bits                                                                
  Compression mode                 : Lossy                                                                  
  Stream size                      : 267 MiB (34%)                                                          
  Alignment                        : Split accross interleaves                                              
  Interleave, duration             : 40 ms (1.00 video frame)                                               
  Interleave, preload duration     : 500 ms                                                                 
                                                                                                            
                                                                             
 
              

                             Greets to all P2P groups